<mxfile host="app.diagrams.net" modified="2021-01-28T08:49:38.458Z" agent="5.0 (Macintosh; Intel Mac OS X 10_15_4) AppleWebKit/537.36 (KHTML, like Gecko) Chrome/88.0.4324.96 Safari/537.36" etag="ENjDYN7YSlDfMemDlNqu" version="14.2.5" type="github">
  <diagram id="P0bgTbS592tkZ1g3cKjc" name="第 1 页">
    <mxGraphModel dx="2253" dy="664" grid="1" gridSize="10" guides="1" tooltips="1" connect="1" arrows="1" fold="1" page="1" pageScale="1" pageWidth="827" pageHeight="1169" math="0" shadow="0">
      <root>
        <mxCell id="0" />
        <mxCell id="1" parent="0" />
        <mxCell id="GcinMiUCHSIhNDMRSMAf-1" value="" style="shape=flexArrow;endArrow=classic;html=1;" edge="1" parent="1">
          <mxGeometry width="50" height="50" relative="1" as="geometry">
            <mxPoint x="-20" y="100" as="sourcePoint" />
            <mxPoint x="160" y="100" as="targetPoint" />
          </mxGeometry>
        </mxCell>
        <mxCell id="GcinMiUCHSIhNDMRSMAf-2" value="rpc接口" style="text;html=1;align=center;verticalAlign=middle;resizable=0;points=[];autosize=1;" vertex="1" parent="1">
          <mxGeometry x="20" y="60" width="60" height="20" as="geometry" />
        </mxCell>
        <mxCell id="GcinMiUCHSIhNDMRSMAf-5" style="edgeStyle=orthogonalEdgeStyle;rounded=0;orthogonalLoop=1;jettySize=auto;html=1;exitX=1;exitY=0.25;exitDx=0;exitDy=0;entryX=0;entryY=0.25;entryDx=0;entryDy=0;" edge="1" parent="1" source="GcinMiUCHSIhNDMRSMAf-3" target="GcinMiUCHSIhNDMRSMAf-7">
          <mxGeometry relative="1" as="geometry">
            <mxPoint x="650" y="93" as="targetPoint" />
          </mxGeometry>
        </mxCell>
        <mxCell id="GcinMiUCHSIhNDMRSMAf-24" style="edgeStyle=orthogonalEdgeStyle;rounded=0;orthogonalLoop=1;jettySize=auto;html=1;exitX=1;exitY=0.75;exitDx=0;exitDy=0;entryX=0;entryY=0.5;entryDx=0;entryDy=0;" edge="1" parent="1" source="GcinMiUCHSIhNDMRSMAf-3" target="GcinMiUCHSIhNDMRSMAf-21">
          <mxGeometry relative="1" as="geometry">
            <mxPoint x="370" y="258" as="targetPoint" />
          </mxGeometry>
        </mxCell>
        <mxCell id="GcinMiUCHSIhNDMRSMAf-3" value="msg server&lt;br&gt;&lt;br&gt;&lt;br&gt;&lt;br&gt;app_id和app_secret获取360家的access_toke&lt;br&gt;（每100分钟获取一次）&lt;br&gt;&lt;br&gt;&lt;br&gt;根据receiver_type获取群Id(groupIds)" style="rounded=0;whiteSpace=wrap;html=1;" vertex="1" parent="1">
          <mxGeometry x="160" y="10" width="120" height="330" as="geometry" />
        </mxCell>
        <mxCell id="GcinMiUCHSIhNDMRSMAf-6" value="text/link" style="text;html=1;align=center;verticalAlign=middle;resizable=0;points=[];autosize=1;" vertex="1" parent="1">
          <mxGeometry x="415" y="60" width="60" height="20" as="geometry" />
        </mxCell>
        <mxCell id="GcinMiUCHSIhNDMRSMAf-36" style="edgeStyle=orthogonalEdgeStyle;rounded=0;orthogonalLoop=1;jettySize=auto;html=1;exitX=0;exitY=0.5;exitDx=0;exitDy=0;entryX=1;entryY=0.5;entryDx=0;entryDy=0;" edge="1" parent="1" source="GcinMiUCHSIhNDMRSMAf-7" target="GcinMiUCHSIhNDMRSMAf-3">
          <mxGeometry relative="1" as="geometry" />
        </mxCell>
        <mxCell id="GcinMiUCHSIhNDMRSMAf-7" value="360家消息接口" style="rounded=0;whiteSpace=wrap;html=1;" vertex="1" parent="1">
          <mxGeometry x="670" y="10" width="120" height="330" as="geometry" />
        </mxCell>
        <mxCell id="GcinMiUCHSIhNDMRSMAf-28" style="edgeStyle=orthogonalEdgeStyle;rounded=0;orthogonalLoop=1;jettySize=auto;html=1;exitX=0.75;exitY=0;exitDx=0;exitDy=0;entryX=0.75;entryY=1;entryDx=0;entryDy=0;" edge="1" parent="1" source="GcinMiUCHSIhNDMRSMAf-8" target="GcinMiUCHSIhNDMRSMAf-21">
          <mxGeometry relative="1" as="geometry" />
        </mxCell>
        <mxCell id="GcinMiUCHSIhNDMRSMAf-8" value="360家文件上传接口" style="rounded=0;whiteSpace=wrap;html=1;" vertex="1" parent="1">
          <mxGeometry x="430" y="440" width="120" height="50" as="geometry" />
        </mxCell>
        <mxCell id="GcinMiUCHSIhNDMRSMAf-16" value="access_token" style="text;html=1;align=center;verticalAlign=middle;resizable=0;points=[];autosize=1;" vertex="1" parent="1">
          <mxGeometry x="475" y="60" width="90" height="20" as="geometry" />
        </mxCell>
        <mxCell id="GcinMiUCHSIhNDMRSMAf-18" value="image or attachment" style="text;html=1;align=center;verticalAlign=middle;resizable=0;points=[];autosize=1;" vertex="1" parent="1">
          <mxGeometry x="290" y="280" width="120" height="20" as="geometry" />
        </mxCell>
        <mxCell id="GcinMiUCHSIhNDMRSMAf-25" style="edgeStyle=orthogonalEdgeStyle;rounded=0;orthogonalLoop=1;jettySize=auto;html=1;exitX=1;exitY=0.5;exitDx=0;exitDy=0;entryX=0;entryY=0.75;entryDx=0;entryDy=0;" edge="1" parent="1" source="GcinMiUCHSIhNDMRSMAf-21" target="GcinMiUCHSIhNDMRSMAf-7">
          <mxGeometry relative="1" as="geometry" />
        </mxCell>
        <mxCell id="GcinMiUCHSIhNDMRSMAf-26" style="edgeStyle=orthogonalEdgeStyle;rounded=0;orthogonalLoop=1;jettySize=auto;html=1;exitX=0.25;exitY=1;exitDx=0;exitDy=0;entryX=0.25;entryY=0;entryDx=0;entryDy=0;" edge="1" parent="1" source="GcinMiUCHSIhNDMRSMAf-21" target="GcinMiUCHSIhNDMRSMAf-8">
          <mxGeometry relative="1" as="geometry" />
        </mxCell>
        <mxCell id="GcinMiUCHSIhNDMRSMAf-21" value="获取media_id" style="rounded=0;whiteSpace=wrap;html=1;" vertex="1" parent="1">
          <mxGeometry x="430" y="230" width="120" height="60" as="geometry" />
        </mxCell>
        <mxCell id="GcinMiUCHSIhNDMRSMAf-27" value="上传文件" style="text;html=1;align=center;verticalAlign=middle;resizable=0;points=[];autosize=1;" vertex="1" parent="1">
          <mxGeometry x="420" y="360" width="60" height="20" as="geometry" />
        </mxCell>
        <mxCell id="GcinMiUCHSIhNDMRSMAf-29" value="返回media_id" style="text;html=1;align=center;verticalAlign=middle;resizable=0;points=[];autosize=1;" vertex="1" parent="1">
          <mxGeometry x="490" y="370" width="90" height="20" as="geometry" />
        </mxCell>
        <mxCell id="GcinMiUCHSIhNDMRSMAf-30" value="media_id" style="text;html=1;align=center;verticalAlign=middle;resizable=0;points=[];autosize=1;" vertex="1" parent="1">
          <mxGeometry x="560" y="220" width="60" height="20" as="geometry" />
        </mxCell>
        <mxCell id="GcinMiUCHSIhNDMRSMAf-33" value="access_token" style="text;html=1;align=center;verticalAlign=middle;resizable=0;points=[];autosize=1;" vertex="1" parent="1">
          <mxGeometry x="560" y="290" width="90" height="20" as="geometry" />
        </mxCell>
        <mxCell id="GcinMiUCHSIhNDMRSMAf-37" value="返回记录存mysql" style="text;html=1;align=center;verticalAlign=middle;resizable=0;points=[];autosize=1;" vertex="1" parent="1">
          <mxGeometry x="415" y="150" width="110" height="20" as="geometry" />
        </mxCell>
        <mxCell id="GcinMiUCHSIhNDMRSMAf-38" value="groupId&lt;br&gt;" style="text;html=1;align=center;verticalAlign=middle;resizable=0;points=[];autosize=1;" vertex="1" parent="1">
          <mxGeometry x="430" y="100" width="60" height="20" as="geometry" />
        </mxCell>
        <mxCell id="GcinMiUCHSIhNDMRSMAf-40" value="groupId" style="text;html=1;align=center;verticalAlign=middle;resizable=0;points=[];autosize=1;" vertex="1" parent="1">
          <mxGeometry x="575" y="270" width="60" height="20" as="geometry" />
        </mxCell>
      </root>
    </mxGraphModel>
  </diagram>
</mxfile>
